<svg xmlns="http://www.w3.org/2000/svg" viewBox="2566.794 31.564 17.319 13.162">
  <defs>
    <style>
      .cls-1 {
        fill: #bdbdbd;
      }

      .cls-2 {
        fill: #fff;
      }
    </style>
  </defs>
  <g id="group-6" transform="translate(1548.642 -411.934)">
    <path id="path-1" class="cls-1" d="M1087.321,450.024h4.01l2.178,1.926h3.539l.62.854v8.849l-.62.64h-14.991l-1.183-.64V452.8l.7-.854h3.645Z" transform="translate(-62.437 -6.028)"/>
    <g id="_1464316980_camera" data-name="1464316980_camera" transform="translate(1018.152 443.497)">
      <path id="path" class="cls-1" d="M21.579,67.383H18.714l-1.666-1.67-.005-.005,0,0h0a1.38,1.38,0,0,0-.974-.4H12.6a1.377,1.377,0,0,0-1.015.448v0L9.955,67.383H7.031a1.386,1.386,0,0,0-1.385,1.385v8.313a1.386,1.386,0,0,0,1.385,1.385H21.579a1.386,1.386,0,0,0,1.386-1.385V68.769A1.386,1.386,0,0,0,21.579,67.383Zm.693,9.7a.694.694,0,0,1-.693.693H7.031a.694.694,0,0,1-.693-.693V68.769a.693.693,0,0,1,.693-.693h3.211l.2-.2.839-.84.017.051.8-.86A.684.684,0,0,1,12.6,66h3.464a.694.694,0,0,1,.492.2l1.666,1.67.2.2h3.152a.694.694,0,0,1,.693.693Z" transform="translate(-5.646 -65.305)"/>
      <path id="path-2" data-name="path" class="cls-2" d="M130.368,145.451a4.5,4.5,0,1,0,4.5,4.5A4.5,4.5,0,0,0,130.368,145.451Zm0,8.313a3.81,3.81,0,1,1,3.81-3.811A3.815,3.815,0,0,1,130.368,153.764Z" transform="translate(-121.709 -142.68)"/>
    </g>
  </g>
</svg>
