<svg id="group-3" xmlns="http://www.w3.org/2000/svg" xmlns:xlink="http://www.w3.org/1999/xlink" viewBox="731.734 308.023 453.531 93.918">
  <defs>
    <style>
      .cls-1, .cls-2, .cls-3 {
        fill: #fff;
      }

      .cls-1, .cls-6 {
        stroke: #7abc21;
      }

      .cls-1, .cls-3, .cls-4 {
        stroke-width: 1px;
      }

      .cls-3 {
        stroke: #95989a;
      }

      .cls-4 {
        fill: #95989a;
        stroke: rgba(0,0,0,0);
      }

      .cls-5 {
        clip-path: url(#clip-path);
      }

      .cls-6 {
        fill: none;
        stroke-width: 5px;
      }

      .cls-7 {
        clip-path: url(#clip-path-2);
      }

      .cls-8 {
        clip-path: url(#clip-path-3);
      }

      .cls-9 {
        fill: #7abc21;
      }
    </style>
    <clipPath id="clip-path">
      <rect id="rectangle-4" class="cls-1" width="64.883" height="25.56"/>
    </clipPath>
    <clipPath id="clip-path-2">
      <rect id="rectangle-6" class="cls-2" width="50.575" height="18.187" transform="translate(12.86) rotate(45)"/>
    </clipPath>
    <clipPath id="clip-path-3">
      <circle id="ellipse-2" class="cls-3" cx="16.712" cy="16.712" r="16.712"/>
    </clipPath>
  </defs>
  <path id="Image_Search" data-name="Image Search" class="cls-4" d="M3.234-45.562a9.623,9.623,0,0,1,.211-2.145,3.166,3.166,0,0,1,.809-1.529,3.756,3.756,0,0,1,1.652-.932,9.784,9.784,0,0,1,2.742-.316h15.68a6.51,6.51,0,0,1,3.111.6,3.508,3.508,0,0,1,1.512,1.494,4.635,4.635,0,0,1,.475,1.9q.035,1,.035,1.846V-4.816q2.426-.352,4.5-.633.879-.105,1.775-.229l1.652-.229q.756-.105,1.354-.158t.879-.053a1.816,1.816,0,0,1,.967.229,1.014,1.014,0,0,1,.369.932v3.234a1.646,1.646,0,0,1-.545,1.178A2.383,2.383,0,0,1,38.672,0H8.578A9.439,9.439,0,0,1,5.889-.316,3.855,3.855,0,0,1,4.254-1.23a3.057,3.057,0,0,1-.809-1.512,9.623,9.623,0,0,1-.211-2.145Zm41.66,14.449a9.681,9.681,0,0,1,.211-2.127,3.064,3.064,0,0,1,.809-1.529,3.855,3.855,0,0,1,1.652-.914A9.784,9.784,0,0,1,50.309-36h15.4a9.41,9.41,0,0,1,2.619.3,3.449,3.449,0,0,1,1.564.9,2.967,2.967,0,0,1,.738,1.512,11.707,11.707,0,0,1,.176,2.18v26.3a10.981,10.981,0,0,1-.176,2.092,3.062,3.062,0,0,1-.738,1.512A3.367,3.367,0,0,1,68.326-.3a9.41,9.41,0,0,1-2.619.3h-15.4a9.784,9.784,0,0,1-2.742-.316,3.855,3.855,0,0,1-1.652-.914,3.057,3.057,0,0,1-.809-1.512,9.623,9.623,0,0,1-.211-2.145Zm32.379,0a9.681,9.681,0,0,1,.211-2.127,3.064,3.064,0,0,1,.809-1.529,3.855,3.855,0,0,1,1.652-.914A9.784,9.784,0,0,1,82.688-36H97.066a9.706,9.706,0,0,1,2.672.316,2.66,2.66,0,0,1,1.582,1.09,8.985,8.985,0,0,1,1.125-.721A12.988,12.988,0,0,1,103.9-36a10.493,10.493,0,0,1,1.688-.51,8.73,8.73,0,0,1,1.846-.193,6.4,6.4,0,0,1,5.1,2.145q.492-.352,1.055-.7A9.445,9.445,0,0,1,115.137-36a11.817,11.817,0,0,1,1.793-.51,9.489,9.489,0,0,1,1.9-.193,6.387,6.387,0,0,1,5.256,2.32q1.881,2.32,1.881,6.82v25.91a2.223,2.223,0,0,1-.158.932,1.148,1.148,0,0,1-.4.492,1.287,1.287,0,0,1-.562.193,5.726,5.726,0,0,1-.633.035h-2.215q-.914,0-1.178-.527a2.482,2.482,0,0,1-.264-1.125V-27.914a5.411,5.411,0,0,0-.721-3.059,2.589,2.589,0,0,0-2.3-1.055,2.683,2.683,0,0,0-.879.158,6.222,6.222,0,0,0-.914.4,7.385,7.385,0,0,0-.844.527q-.316.246-.562.457a16.134,16.134,0,0,1,.246,2.918v25.91a2.223,2.223,0,0,1-.158.932,1.209,1.209,0,0,1-.387.492,1.167,1.167,0,0,1-.545.193,5.726,5.726,0,0,1-.633.035H110.6q-.914,0-1.178-.527a2.482,2.482,0,0,1-.264-1.125V-27.914a5.411,5.411,0,0,0-.721-3.059,2.589,2.589,0,0,0-2.3-1.055,3.46,3.46,0,0,0-1.635.439,5.524,5.524,0,0,0-1.318.932V-4.922a9.623,9.623,0,0,1-.211,2.145,3.166,3.166,0,0,1-.809,1.529,3.756,3.756,0,0,1-1.652.932A9.784,9.784,0,0,1,97.77,0H82.688a9.784,9.784,0,0,1-2.742-.316,3.855,3.855,0,0,1-1.652-.914,3.057,3.057,0,0,1-.809-1.512,9.623,9.623,0,0,1-.211-2.145ZM164.285-5.836a5.315,5.315,0,0,0,1.723-.264,10.325,10.325,0,0,0,1.389-.58,11.678,11.678,0,0,0,1.02-.58,1.311,1.311,0,0,1,.615-.264.689.689,0,0,1,.439.105,1.769,1.769,0,0,1,.3.387l1.23,1.9a.967.967,0,0,1,.176.492.523.523,0,0,1-.141.387,2.64,2.64,0,0,1-.281.246,32.587,32.587,0,0,1-2.848,1.74,25.189,25.189,0,0,1-3.92,1.705A33.97,33.97,0,0,1,158.941.721a34.782,34.782,0,0,1-6.187.51A33.328,33.328,0,0,1,147.48.809a25.553,25.553,0,0,1-5.045-1.336,19.827,19.827,0,0,1-4.482-2.391,15.325,15.325,0,0,1-3.6-3.621,17.37,17.37,0,0,1-2.408-4.975A21.879,21.879,0,0,1,131.063-18a21.614,21.614,0,0,1,.879-6.416,17.37,17.37,0,0,1,2.408-4.975,15.626,15.626,0,0,1,3.6-3.639,19.952,19.952,0,0,1,4.482-2.426,24.8,24.8,0,0,1,5.045-1.354,33.328,33.328,0,0,1,5.273-.422,32.352,32.352,0,0,1,8.174.984,17.121,17.121,0,0,1,6.557,3.234,15.208,15.208,0,0,1,4.359,5.906,22.566,22.566,0,0,1,1.582,8.965v1.969a1.42,1.42,0,0,1-.316.984,1.361,1.361,0,0,1-1.055.352H157.5a15.932,15.932,0,0,0,1,4.342,9.668,9.668,0,0,0,1.652,2.777,5.317,5.317,0,0,0,2.021,1.459A5.829,5.829,0,0,0,164.285-5.836Zm4.148-13.324a20.585,20.585,0,0,0-.439-4.658,9.166,9.166,0,0,0-1.178-2.953,4.221,4.221,0,0,0-1.74-1.564,4.985,4.985,0,0,0-2.092-.457,5.587,5.587,0,0,0-1.758.316,3.942,3.942,0,0,0-1.775,1.336,8.676,8.676,0,0,0-1.406,2.918,20.19,20.19,0,0,0-.686,5.063Zm39.9-19.23a14.053,14.053,0,0,1,2.074-6.4,13.277,13.277,0,0,1,4.184-4.1,17.215,17.215,0,0,1,5.555-2.162,30.46,30.46,0,0,1,6.188-.633q2.566,0,5.027.211t4.535.492q2.074.281,3.586.563t2.215.422q.422.105.422.387a3.508,3.508,0,0,1-.07.422l-.527,2.531q-.07.246-.193.3a.584.584,0,0,1-.229.053,6.246,6.246,0,0,0-2.672.527,5.022,5.022,0,0,0-1.863,1.477,6.761,6.761,0,0,0-1.125,2.25,14.606,14.606,0,0,0-.527,2.813L232.8-13.676a17.123,17.123,0,0,1-1.582,5.836A14.692,14.692,0,0,1,227.6-3.059a17.23,17.23,0,0,1-5.7,3.234,23.106,23.106,0,0,1-7.734,1.2,54.44,54.44,0,0,1-5.625-.281Q205.84.809,203.625.422t-3.814-.756q-1.6-.369-2.3-.545-.422-.105-.422-.387,0-.035.07-.387l.6-2.672q.07-.246.193-.3a.584.584,0,0,1,.229-.053,8.692,8.692,0,0,0,2.865-.457,5.641,5.641,0,0,0,2.3-1.512,8.39,8.39,0,0,0,1.635-2.742,16.1,16.1,0,0,0,.9-4.148ZM277.418-5.836a5.315,5.315,0,0,0,1.723-.264,10.325,10.325,0,0,0,1.389-.58,11.678,11.678,0,0,0,1.02-.58,1.311,1.311,0,0,1,.615-.264.689.689,0,0,1,.439.105,1.769,1.769,0,0,1,.3.387l1.23,1.9a.967.967,0,0,1,.176.492.523.523,0,0,1-.141.387,2.64,2.64,0,0,1-.281.246,32.587,32.587,0,0,1-2.848,1.74,25.189,25.189,0,0,1-3.92,1.705A33.97,33.97,0,0,1,272.074.721a34.782,34.782,0,0,1-6.187.51,33.328,33.328,0,0,1-5.273-.422,25.553,25.553,0,0,1-5.045-1.336,19.827,19.827,0,0,1-4.482-2.391,15.325,15.325,0,0,1-3.6-3.621,17.37,17.37,0,0,1-2.408-4.975A21.879,21.879,0,0,1,244.2-18a21.614,21.614,0,0,1,.879-6.416,17.37,17.37,0,0,1,2.408-4.975,15.626,15.626,0,0,1,3.6-3.639,19.952,19.952,0,0,1,4.482-2.426,24.8,24.8,0,0,1,5.045-1.354,33.328,33.328,0,0,1,5.273-.422,32.352,32.352,0,0,1,8.174.984,17.121,17.121,0,0,1,6.557,3.234,15.208,15.208,0,0,1,4.359,5.906,22.566,22.566,0,0,1,1.582,8.965v1.969a1.42,1.42,0,0,1-.316.984,1.361,1.361,0,0,1-1.055.352H270.633a15.932,15.932,0,0,0,1,4.342,9.668,9.668,0,0,0,1.652,2.777,5.317,5.317,0,0,0,2.021,1.459A5.829,5.829,0,0,0,277.418-5.836Zm4.148-13.324a20.585,20.585,0,0,0-.439-4.658,9.166,9.166,0,0,0-1.178-2.953,4.221,4.221,0,0,0-1.74-1.564,4.985,4.985,0,0,0-2.092-.457,5.587,5.587,0,0,0-1.758.316,3.942,3.942,0,0,0-1.775,1.336,8.676,8.676,0,0,0-1.406,2.918,20.19,20.19,0,0,0-.686,5.063ZM306.352,0a29.914,29.914,0,0,1-3.814-.246,21.288,21.288,0,0,1-3.656-.791,15.9,15.9,0,0,1-3.252-1.424,10.032,10.032,0,0,1-2.619-2.18A9.772,9.772,0,0,1,291.27-7.7a11.9,11.9,0,0,1-.633-4.043,11.012,11.012,0,0,1,1.16-5.238,10.676,10.676,0,0,1,3.111-3.621,14.7,14.7,0,0,1,4.482-2.215,24.341,24.341,0,0,1,5.238-.984v-2.426a5.567,5.567,0,0,0-.352-2.18,2.91,2.91,0,0,0-.9-1.213,2.883,2.883,0,0,0-1.2-.527,6.715,6.715,0,0,0-1.248-.123,5.807,5.807,0,0,0-1.494.211,13,13,0,0,0-1.529.51q-.738.3-1.406.65t-1.125.633q-.211.141-.387.246a.678.678,0,0,1-.352.105q-.316,0-.6-.457l-1.2-1.9a.89.89,0,0,1-.176-.527.651.651,0,0,1,.229-.492,3.6,3.6,0,0,1,.439-.352,20.462,20.462,0,0,1,2.953-1.652,28.967,28.967,0,0,1,4.025-1.512,38.221,38.221,0,0,1,4.834-1.09,33.561,33.561,0,0,1,5.379-.422q2.637,0,5.15.176a26.082,26.082,0,0,1,4.746.756,16.166,16.166,0,0,1,4.078,1.652,10.969,10.969,0,0,1,3.2,2.83,12.82,12.82,0,0,1,2.092,4.324,22.45,22.45,0,0,1,.738,6.152v15.68a9.027,9.027,0,0,1-.211,2.057A3.051,3.051,0,0,1,329.52-1.2a3.72,3.72,0,0,1-1.652.9,10.33,10.33,0,0,1-2.742.3Zm-1.723-19.336a12.426,12.426,0,0,0-4.254.633,7.532,7.532,0,0,0-2.777,1.688,6.12,6.12,0,0,0-1.512,2.443,9.107,9.107,0,0,0-.457,2.865,8.473,8.473,0,0,0,.457,2.795,5.641,5.641,0,0,0,1.512,2.3,7.347,7.347,0,0,0,2.777,1.547,13.856,13.856,0,0,0,4.254.563Zm32.379-11.777a9.681,9.681,0,0,1,.211-2.127,3.064,3.064,0,0,1,.809-1.529,3.855,3.855,0,0,1,1.652-.914A9.784,9.784,0,0,1,342.422-36h15.4a8.733,8.733,0,0,1,2.6.316,3.411,3.411,0,0,1,1.547.949,3.329,3.329,0,0,1,.756,1.582,11.2,11.2,0,0,1,.193,2.215v2.6l7.8-7.594a2.194,2.194,0,0,1,1.441-.738,1.443,1.443,0,0,1,.686.158,2.111,2.111,0,0,1,.51.369l1.582,1.652a1.613,1.613,0,0,1,.527,1.16,1.6,1.6,0,0,1-.229.791,2.779,2.779,0,0,1-.721.791l-11.6,9V-4.957a11.773,11.773,0,0,1-.176,2.162,2.945,2.945,0,0,1-.773,1.547,3.773,3.773,0,0,1-1.723.932A11.745,11.745,0,0,1,357.188,0H342.422a9.784,9.784,0,0,1-2.742-.316,3.855,3.855,0,0,1-1.652-.914,3.057,3.057,0,0,1-.809-1.512,9.623,9.623,0,0,1-.211-2.145Zm63.246,13.324a19.615,19.615,0,0,0,.756,5.906,11.081,11.081,0,0,0,1.916,3.744,6.684,6.684,0,0,0,2.5,1.951,6.46,6.46,0,0,0,2.5.563,5.448,5.448,0,0,0,1.617-.229,7.507,7.507,0,0,0,1.3-.527q.563-.3.949-.527a1.329,1.329,0,0,1,.6-.229.689.689,0,0,1,.439.105,1.769,1.769,0,0,1,.3.387l1.23,1.9a.967.967,0,0,1,.176.492.523.523,0,0,1-.141.387,2.64,2.64,0,0,1-.281.246,28.042,28.042,0,0,1-2.848,1.705,25.328,25.328,0,0,1-3.92,1.635,36.322,36.322,0,0,1-4.975,1.23,33.886,33.886,0,0,1-5.977.492,33.328,33.328,0,0,1-5.273-.422,24.094,24.094,0,0,1-5.045-1.371,20.5,20.5,0,0,1-4.482-2.443,15.775,15.775,0,0,1-3.6-3.621,17.114,17.114,0,0,1-2.408-4.957,21.614,21.614,0,0,1-.879-6.416,21.614,21.614,0,0,1,.879-6.416,17.114,17.114,0,0,1,2.408-4.957,15.775,15.775,0,0,1,3.6-3.621,20.5,20.5,0,0,1,4.482-2.443,24.094,24.094,0,0,1,5.045-1.371,33.328,33.328,0,0,1,5.273-.422,34.188,34.188,0,0,1,5.555.439,35.155,35.155,0,0,1,4.939,1.16,32.255,32.255,0,0,1,4.078,1.582,17.413,17.413,0,0,1,2.936,1.705,2.64,2.64,0,0,1,.281.246.523.523,0,0,1,.141.387.843.843,0,0,1-.176.492l-1.23,1.9a1.769,1.769,0,0,1-.3.387.689.689,0,0,1-.439.105,1.2,1.2,0,0,1-.562-.211q-.352-.211-.879-.475a8.951,8.951,0,0,0-1.23-.492,5.105,5.105,0,0,0-1.582-.229,6.3,6.3,0,0,0-2.5.58,6.8,6.8,0,0,0-2.5,1.986A11.3,11.3,0,0,0,401.01-23.7,19.615,19.615,0,0,0,400.254-17.789Zm44.121-17.543a6.671,6.671,0,0,1,1.863-.984,7.1,7.1,0,0,1,2.391-.387,6.387,6.387,0,0,1,5.256,2.32q1.881,2.32,1.881,6.82v25.91a2.223,2.223,0,0,1-.158.932,1.209,1.209,0,0,1-.387.492,1.167,1.167,0,0,1-.545.193,5.726,5.726,0,0,1-.633.035h-2.25q-.914,0-1.178-.527a2.482,2.482,0,0,1-.264-1.125V-27.914a5.411,5.411,0,0,0-.721-3.059,2.589,2.589,0,0,0-2.3-1.055,3.46,3.46,0,0,0-1.635.439,5.524,5.524,0,0,0-1.318.932V-4.922a14.289,14.289,0,0,1-.141,2.145,2.993,2.993,0,0,1-.668,1.529,3.239,3.239,0,0,1-1.512.932A9.033,9.033,0,0,1,439.383,0H423.105a6.9,6.9,0,0,1-2.268-.316,3.33,3.33,0,0,1-1.424-.914,3.391,3.391,0,0,1-.738-1.512,9.623,9.623,0,0,1-.211-2.145V-52.7a9.681,9.681,0,0,1,.211-2.127,3.064,3.064,0,0,1,.809-1.529,3.855,3.855,0,0,1,1.652-.914,9.784,9.784,0,0,1,2.742-.316h15.4a9.8,9.8,0,0,1,2.584.281,3.251,3.251,0,0,1,1.564.9,3.2,3.2,0,0,1,.756,1.529,10.671,10.671,0,0,1,.193,2.18Z" transform="translate(729 400)"/>
  <g id="group-2" transform="translate(-603.923 122.077)">
    <g id="group-mask-1" class="cls-5" transform="translate(1370.02 185.946) rotate(45)">
      <path id="ellipse-1" class="cls-6" d="M22.857,0A22.857,22.857,0,1,1,0,22.857,22.857,22.857,0,0,1,22.857,0Z" transform="translate(7.373 -23.102)"/>
    </g>
    <g id="group-mask-3" class="cls-7" transform="translate(1360.566 189.651)">
      <g id="group-mask-2" class="cls-8" transform="translate(14.018 0.746)">
        <rect id="rectangle-5" class="cls-9" width="14.746" height="14.746" transform="translate(14.746 0.492) rotate(90)"/>
        <rect id="rectangle-5-2" data-name="rectangle-5" class="cls-9" width="14.746" height="14.746" transform="translate(34.408 19.662) rotate(90)"/>
        <path id="rectangle-5-3" data-name="rectangle-5" class="cls-9" d="M0,0H14.746V14.746H0Z" transform="translate(14.746 19.662) rotate(90)"/>
      </g>
    </g>
  </g>
</svg>
